# xmcd
#
# Track frame offsets:
#	150
#	20137
#	37386
#	50436
#	69279
#	86295
#	103317
#	118550
#	132237
#	144962
#	167874
#	181658
#	197220
#	214957
#
# Disc length: 3106 seconds
#
# Revision: 1
# Processed by: cddbd v1.5.2PL0 Copyright (c) Steve Scherf et al.
# Submitted via: audiograbber 1.83.01
#
DISCID=cd0c200e
DTITLE=Compilation - Hitz 2008 Vol. 1
DYEAR=2008
DGENRE=Country
TTITLE0=Letter To Me - Brad Paisley
TTITLE1=God Must Be Busy - Brooks and Dunn
TTITLE2=Picture To Burn - Taylor Swift
TTITLE3=Shiftwork - Kenny Chesney
TTITLE4=Another Try - Josh Turner W/Trisha Yearwood
TTITLE5=You're Gonna Miss This - Trace Adkins
TTITLE6=It Ain't No Crime - Joe Nichols
TTITLE7=Loud - Big and Rich
TTITLE8=Rollin' With The Flow - Mark Chesnutt 
TTITLE9=The Only Promise That Remains - Reba McEntire and Justin Timberlake
TTITLE10=Gunpowder and Lead - Miranda Lambert
TTITLE11=In My Next Life - Terri Clark
TTITLE12=We Rode In Trucks - Luke Bryan
TTITLE13=This Is Me You're Talking To  - Trisha Yearwood
EXTD=
EXTT0=
EXTT1=
EXTT2=
EXTT3=
EXTT4=
EXTT5=
EXTT6=
EXTT7=
EXTT8=
EXTT9=
EXTT10=
EXTT11=
EXTT12=
EXTT13=
PLAYORDER=
